<svg width="33" height="32" viewBox="0 0 33 32" fill="none" xmlns="http://www.w3.org/2000/svg">
<path d="M7.16669 9.33334H25.5534C25.9259 9.33336 26.2943 9.41144 26.6349 9.56255C26.9754 9.71366 27.2805 9.93446 27.5305 10.2107C27.7805 10.4869 27.9698 10.8125 28.0863 11.1664C28.2027 11.5203 28.2438 11.8946 28.2067 12.2653L27.4067 20.2653C27.3409 20.9234 27.0329 21.5334 26.5426 21.9772C26.0523 22.4209 25.4146 22.6667 24.7534 22.6667H12.02C11.4033 22.6669 10.8056 22.4534 10.3286 22.0625C9.85164 21.6716 9.52489 21.1274 9.40402 20.5227L7.16669 9.33334Z" stroke="#1D1D1D" stroke-width="2" stroke-linejoin="round"/>
<path d="M21.8334 28H24.5M7.16669 9.33333L6.08669 5.00933C6.01446 4.721 5.84796 4.46508 5.61363 4.28221C5.3793 4.09934 5.09059 4.00001 4.79335 4H3.16669L7.16669 9.33333ZM11.1667 28H13.8334H11.1667Z" stroke="#1D1D1D" stroke-width="2" stroke-linecap="round" stroke-linejoin="round"/>
<circle cx="27.5" cy="9" r="4.5" fill="#FF912B" stroke="white"/>
</svg>
