<svg width="151" height="30" viewBox="0 0 151 30" fill="none" xmlns="http://www.w3.org/2000/svg">
<g clip-path="url(#clip0_303_114)">
<path d="M46.5 1.5C46.5 7.46737 44.5 13.5 41.5 17.4099C37.5 21.5 37.5 24 26.0222 24C14.5444 24 14.5 22.1151 10.1123 17.4099C5.72463 12.7047 5.5 7.96737 5.5 2H9.5C9.5 10.5 12.9388 14.5834 12.9388 14.5834C12.9388 14.5834 16.0222 20.0027 26.0222 20.0027C36.0222 20.0027 38.5 14.5834 38.5 14.5834C38.5 14.5834 41.9321 8.5 41.9321 1.5H46.5Z" fill="#2F2105"/>
<path d="M41.9596 9.52731C42.3656 10.8568 43.1895 12.02 44.3091 12.8441C45.4286 13.6682 46.7841 14.1094 48.1742 14.102C49.5643 14.0946 50.915 13.6391 52.0258 12.8032C53.1365 11.9673 53.9481 10.7954 54.34 9.46165C54.7319 8.12787 54.6832 6.70327 54.2012 5.39935C53.7192 4.09543 52.8296 2.9817 51.6643 2.22351C50.4991 1.46533 49.1205 1.10311 47.7331 1.19062C46.3457 1.27814 45.0235 1.81073 43.9628 2.70933L46.1146 5.24924C46.6289 4.81353 47.27 4.5553 47.9427 4.51286C48.6154 4.47043 49.2838 4.64606 49.8488 5.01368C50.4138 5.3813 50.8452 5.92131 51.0789 6.55355C51.3126 7.18578 51.3362 7.87652 51.1462 8.52323C50.9561 9.16994 50.5626 9.73814 50.0241 10.1434C49.4855 10.5488 48.8306 10.7696 48.1566 10.7732C47.4825 10.7768 46.8253 10.5629 46.2825 10.1633C45.7396 9.76371 45.3401 9.19973 45.1433 8.55507L41.9596 9.52731Z" fill="#2F2105"/>
<path d="M39.5 1.59495C39.5 5.94584 38.025 10.1185 35.3995 13.1951C32.774 16.2716 29.213 18 25.5 18C21.787 18 18.226 16.2716 15.6005 13.1951C12.975 10.1185 11.5 5.94584 11.5 1.59495C11.5 1.59495 19.5 5.18358 25.5 1.59495C31.5 -1.99369 39.5 1.59495 39.5 1.59495Z" fill="#FF912B"/>
<path d="M44.2553 27H7.74468C7.05726 27 6.5 27.6716 6.5 28.5C6.5 29.3284 7.05726 30 7.74468 30H44.2553C44.9427 30 45.5 29.3284 45.5 28.5C45.5 27.6716 44.9427 27 44.2553 27Z" fill="#2F2105"/>
<path d="M67.5838 21.3049C66.1391 21.3049 64.8826 21.0425 63.8143 20.5175C62.7459 19.9804 61.9265 19.2235 61.3559 18.2468C60.7853 17.2702 60.5 16.1348 60.5 14.8408C60.5 13.0462 60.8339 11.453 61.5016 10.0613C62.1814 8.66959 63.098 7.59528 64.2513 6.83838C65.4047 6.06927 66.6855 5.68471 68.0937 5.68471C69.4049 5.68471 70.4004 6.02654 71.0802 6.71019C71.7601 7.38163 72.1 8.27282 72.1 9.38376C72.1 10.1285 71.9665 10.7266 71.6994 11.1783C71.4444 11.63 71.0742 11.8559 70.5886 11.8559C70.2486 11.8559 69.9815 11.7765 69.7873 11.6178C69.5931 11.4591 69.4959 11.2272 69.4959 10.922C69.4959 10.8121 69.5202 10.6107 69.5688 10.3177C69.6416 9.95143 69.678 9.65844 69.678 9.43869C69.678 8.32776 69.0892 7.77229 67.9116 7.77229C67.1104 7.77229 66.3455 8.03477 65.6171 8.55971C64.8887 9.08466 64.2999 9.85987 63.8507 10.8853C63.4015 11.8986 63.1769 13.1072 63.1769 14.5111C63.1769 15.9761 63.5836 17.1115 64.397 17.9172C65.2104 18.7107 66.4123 19.1075 68.0027 19.1075C68.7918 19.1075 69.587 19.0098 70.3882 18.8145C71.2016 18.607 72.1 18.2956 73.0834 17.8806C73.2655 17.8073 73.4172 17.7707 73.5386 17.7707C73.7329 17.7707 73.8786 17.8439 73.9757 17.9904C74.0728 18.1369 74.1214 18.3262 74.1214 18.5581C74.1214 19.3028 73.7207 19.8522 72.9195 20.2062C72.0575 20.5847 71.1591 20.8654 70.2243 21.0486C69.3017 21.2195 68.4215 21.3049 67.5838 21.3049ZM74.9326 21.3049C74.1799 21.3049 73.5789 21.0303 73.1298 20.4809C72.6806 19.9315 72.456 19.2113 72.456 18.3201C72.456 17.3434 72.6806 16.4217 73.1298 15.5549C73.5789 14.676 74.1738 13.974 74.9144 13.449C75.6671 12.9119 76.4623 12.6433 77.3 12.6433C77.5671 12.6433 77.7431 12.6982 77.8281 12.8081C77.9252 12.9058 78.0041 13.0889 78.0648 13.3575C78.3198 13.3087 78.5869 13.2842 78.8661 13.2842C79.461 13.2842 79.7584 13.4979 79.7584 13.9252C79.7584 14.1815 79.6673 14.7919 79.4852 15.7564C79.206 17.1603 79.0664 18.1369 79.0664 18.6863C79.0664 18.8694 79.1089 19.0159 79.1939 19.1258C79.291 19.2357 79.4124 19.2906 79.5581 19.2906C79.7887 19.2906 80.068 19.1441 80.3958 18.8511C80.7235 18.5459 81.1667 18.0576 81.7251 17.3861C81.8708 17.2152 82.0347 17.1298 82.2168 17.1298C82.3746 17.1298 82.496 17.203 82.581 17.3495C82.6781 17.496 82.7267 17.6974 82.7267 17.9538C82.7267 18.4421 82.6114 18.8206 82.3807 19.0892C81.8829 19.7118 81.3548 20.2367 80.7964 20.664C80.2379 21.0913 79.6977 21.3049 79.1757 21.3049C78.775 21.3049 78.4048 21.1706 78.0648 20.9021C77.737 20.6213 77.4882 20.2428 77.3182 19.7667C76.6869 20.7922 75.8917 21.3049 74.9326 21.3049ZM75.5882 19.4554C75.8553 19.4554 76.1102 19.2967 76.353 18.9793C76.5959 18.6619 76.7719 18.2407 76.8812 17.7158L77.5549 14.3463C77.045 14.3585 76.5716 14.5539 76.1345 14.9323C75.7096 15.2986 75.3697 15.7869 75.1147 16.3973C74.8598 17.0077 74.7323 17.6547 74.7323 18.3384C74.7323 18.7168 74.8052 18.9976 74.9508 19.1807C75.1087 19.3639 75.3211 19.4554 75.5882 19.4554ZM88.3347 16.086C88.6746 16.086 88.8446 16.3424 88.8446 16.8551C88.8446 17.8195 88.0919 18.3017 86.5865 18.3017C86.2952 18.3017 85.8763 18.2468 85.33 18.1369C85.4878 18.8938 85.6153 19.7362 85.7124 20.664C85.8217 21.5796 85.8763 22.3365 85.8763 22.9347C85.8763 24.2532 85.6639 25.2604 85.239 25.9562C84.814 26.6521 84.2556 27 83.5636 27C82.6895 27 82.0643 26.3774 81.6879 25.1322C81.3237 23.8869 81.1416 22.0069 81.1416 19.492C81.1416 17.1481 81.3905 14.7736 81.8882 12.3686C82.3981 9.95143 83.0901 7.95541 83.9642 6.38057C84.8505 4.79352 85.8217 4 86.8779 4C87.4485 4 87.8916 4.25637 88.2072 4.7691C88.535 5.28184 88.6989 5.9716 88.6989 6.83838C88.6989 9.70727 86.9932 12.8325 83.5818 16.2142C83.4604 17.4106 83.3997 18.4605 83.3997 19.3639C83.3997 20.6213 83.4422 21.9092 83.5272 23.2277C83.6122 24.5584 83.7518 25.2237 83.946 25.2237C84.3102 25.2237 84.4923 24.5889 84.4923 23.3193C84.4923 22.367 84.4256 21.4453 84.292 20.5541C84.1706 19.663 84.0007 18.7229 83.7821 17.7341C83.77 17.5754 83.8185 17.3739 83.9278 17.1298C84.0492 16.8856 84.1949 16.672 84.3649 16.4889C84.5348 16.3057 84.6866 16.2142 84.8201 16.2142C85.0629 16.2142 85.3543 16.2264 85.6942 16.2508C85.8035 16.263 85.931 16.2691 86.0766 16.2691C86.5622 16.2691 87.1025 16.2264 87.6974 16.1409C87.7945 16.1287 87.8977 16.1165 88.0069 16.1043C88.1162 16.0921 88.2255 16.086 88.3347 16.086ZM86.4955 5.8129C86.2769 5.8129 86.0038 6.18524 85.676 6.92993C85.3604 7.67463 85.0447 8.66348 84.7291 9.89649C84.4134 11.1173 84.1403 12.4114 83.9096 13.7787C84.8808 12.6677 85.6274 11.5141 86.1495 10.3177C86.6715 9.10908 86.9386 7.97983 86.9507 6.92993C86.9507 6.18524 86.799 5.8129 86.4955 5.8129ZM93.9901 17.6791C94.1479 17.6791 94.2693 17.7524 94.3543 17.8989C94.4514 18.0454 94.5 18.2468 94.5 18.5032C94.5 18.9427 94.3968 19.3211 94.1904 19.6385C93.8505 20.1635 93.4013 20.5725 92.8429 20.8654C92.2965 21.1584 91.641 21.3049 90.8761 21.3049C89.7107 21.3049 88.8062 20.957 88.1628 20.2611C87.5194 19.5531 87.1976 18.6009 87.1976 17.4045C87.1976 16.5621 87.3737 15.7808 87.7257 15.0605C88.0778 14.328 88.5634 13.7481 89.1826 13.3209C89.8139 12.8936 90.5241 12.6799 91.3132 12.6799C92.0173 12.6799 92.5818 12.8936 93.0067 13.3209C93.4317 13.7359 93.6441 14.3036 93.6441 15.0239C93.6441 15.8662 93.3406 16.5926 92.7336 17.203C92.1387 17.8012 91.1189 18.2773 89.6742 18.6314C89.9656 19.1929 90.4573 19.4737 91.1493 19.4737C91.647 19.4737 92.0537 19.3577 92.3694 19.1258C92.6972 18.8938 93.0735 18.5032 93.4984 17.9538C93.6441 17.7707 93.808 17.6791 93.9901 17.6791ZM91.0036 14.4745C90.5544 14.4745 90.172 14.737 89.8564 15.2619C89.5528 15.7869 89.4011 16.4217 89.4011 17.1664V17.203C90.1174 17.0321 90.6819 16.7757 91.0947 16.4339C91.5074 16.0921 91.7138 15.6953 91.7138 15.2436C91.7138 15.0117 91.647 14.8286 91.5135 14.6943C91.3921 14.5478 91.2221 14.4745 91.0036 14.4745Z" fill="#FF912B"/>
<path d="M105.865 21C104.242 21 102.942 20.6973 101.965 20.0919C100.988 19.4745 100.5 18.5361 100.5 17.277C100.5 16.6111 100.616 16.1025 100.848 15.7514C101.08 15.4003 101.422 15.2247 101.873 15.2247C102.203 15.2247 102.472 15.3095 102.679 15.479C102.887 15.6485 102.99 15.8664 102.99 16.1328C102.99 16.375 102.972 16.5868 102.936 16.7684C102.936 16.8169 102.923 16.9016 102.899 17.0227C102.887 17.1438 102.881 17.2709 102.881 17.4041C102.881 17.9489 103.155 18.3545 103.705 18.6209C104.266 18.8872 105.048 19.0204 106.049 19.0204C107.086 19.0204 107.898 18.8388 108.484 18.4756C109.07 18.1003 109.363 17.5796 109.363 16.9137C109.363 16.5021 109.229 16.151 108.96 15.8604C108.692 15.5577 108.356 15.3095 107.953 15.1158C107.55 14.91 106.983 14.6617 106.25 14.3712C105.31 14.0079 104.541 13.6629 103.943 13.336C103.357 13.0091 102.85 12.5672 102.423 12.0102C102.008 11.4412 101.8 10.7389 101.8 9.90352C101.8 9.03178 102.032 8.25691 102.496 7.57889C102.972 6.90087 103.65 6.3742 104.529 5.99886C105.42 5.62353 106.464 5.43587 107.66 5.43587C108.551 5.43587 109.369 5.56905 110.114 5.83542C110.859 6.08967 111.451 6.48316 111.89 7.01589C112.342 7.54862 112.568 8.20242 112.568 8.9773C112.568 9.74007 112.452 10.3152 112.22 10.7026C111.988 11.09 111.646 11.2838 111.194 11.2838C110.877 11.2838 110.608 11.1869 110.389 10.9932C110.181 10.7995 110.077 10.5694 110.077 10.3031C110.077 10.073 110.096 9.86115 110.132 9.66743C110.169 9.3042 110.187 9.07416 110.187 8.9773C110.187 8.46879 109.937 8.08135 109.436 7.81498C108.936 7.54862 108.313 7.41544 107.569 7.41544C106.519 7.41544 105.713 7.60916 105.151 7.9966C104.602 8.37193 104.327 8.90466 104.327 9.59478C104.327 10.0549 104.468 10.4484 104.748 10.7753C105.041 11.1022 105.402 11.3746 105.829 11.5925C106.256 11.8104 106.854 12.0708 107.623 12.3734C108.551 12.7488 109.296 13.0878 109.858 13.3905C110.419 13.6932 110.895 14.1048 111.286 14.6254C111.689 15.146 111.89 15.7877 111.89 16.5505C111.89 17.9792 111.341 19.081 110.242 19.8558C109.156 20.6186 107.697 21 105.865 21ZM121.442 16.8048C121.6 16.8048 121.723 16.8774 121.808 17.0227C121.906 17.168 121.955 17.3678 121.955 17.622C121.955 18.1063 121.839 18.4817 121.607 18.748C121.082 19.3897 120.508 19.9164 119.885 20.328C119.263 20.7397 118.548 20.9455 117.743 20.9455C115.252 20.9455 114.007 19.2081 114.007 15.7333C114.007 15.2005 114.025 14.6617 114.062 14.1169H113.348C112.981 14.1169 112.731 14.0503 112.597 13.9171C112.475 13.784 112.414 13.5721 112.414 13.2815C112.414 12.6035 112.688 12.2645 113.238 12.2645H114.282C114.489 10.9327 114.807 9.71585 115.234 8.61407C115.661 7.5123 116.174 6.63451 116.772 5.98071C117.383 5.32691 118.036 5 118.732 5C119.244 5 119.647 5.22399 119.94 5.67196C120.233 6.11994 120.38 6.68294 120.38 7.36095C120.38 9.23761 119.586 10.8721 117.999 12.2645H120.05C120.245 12.2645 120.386 12.3069 120.471 12.3916C120.557 12.4764 120.599 12.6338 120.599 12.8638C120.599 13.6992 119.91 14.1169 118.53 14.1169H116.296C116.272 14.7223 116.259 15.1945 116.259 15.5335C116.259 16.7927 116.406 17.6765 116.699 18.185C117.004 18.6935 117.48 18.9478 118.127 18.9478C118.652 18.9478 119.116 18.7904 119.519 18.4756C119.922 18.1608 120.398 17.6886 120.947 17.059C121.094 16.8895 121.259 16.8048 121.442 16.8048ZM118.237 6.74347C118.054 6.74347 117.846 6.97352 117.615 7.4336C117.395 7.88158 117.181 8.51116 116.974 9.32236C116.778 10.1215 116.613 11.0114 116.479 11.9921C117.199 11.3746 117.737 10.6845 118.091 9.92168C118.457 9.14681 118.64 8.44457 118.64 7.81498C118.64 7.10064 118.506 6.74347 118.237 6.74347ZM121.764 20.9455C121.3 20.9455 120.97 20.7034 120.775 20.2191C120.592 19.7348 120.5 18.9599 120.5 17.8944C120.5 16.3205 120.726 14.8252 121.178 13.4086C121.288 13.0575 121.465 12.8033 121.709 12.6459C121.965 12.4764 122.319 12.3916 122.771 12.3916C123.015 12.3916 123.186 12.4219 123.284 12.4824C123.381 12.5429 123.43 12.658 123.43 12.8275C123.43 13.0212 123.339 13.4571 123.155 14.1351C123.033 14.6194 122.936 15.0431 122.862 15.4064C122.789 15.7696 122.728 16.2176 122.679 16.7503C123.082 15.709 123.534 14.8615 124.034 14.2077C124.535 13.5539 125.023 13.0878 125.499 12.8093C125.988 12.5308 126.433 12.3916 126.836 12.3916C127.63 12.3916 128.027 12.7851 128.027 13.5721C128.027 13.7295 127.972 14.1109 127.862 14.7162C127.764 15.2005 127.715 15.5032 127.715 15.6243C127.715 16.048 127.868 16.2599 128.173 16.2599C128.515 16.2599 128.954 15.9936 129.492 15.4608C129.65 15.3034 129.815 15.2247 129.986 15.2247C130.145 15.2247 130.267 15.2974 130.352 15.4427C130.45 15.5759 130.499 15.7575 130.499 15.9875C130.499 16.4355 130.377 16.7866 130.132 17.0409C129.791 17.392 129.388 17.6947 128.924 17.9489C128.472 18.1911 127.99 18.3121 127.477 18.3121C126.83 18.3121 126.336 18.1487 125.994 17.8218C125.664 17.4949 125.499 17.053 125.499 16.496C125.499 16.3144 125.518 16.1328 125.554 15.9512C125.579 15.709 125.591 15.5456 125.591 15.4608C125.591 15.2671 125.524 15.1703 125.39 15.1703C125.206 15.1703 124.962 15.3761 124.657 15.7877C124.364 16.1873 124.071 16.72 123.778 17.3859C123.485 18.0518 123.247 18.7541 123.064 19.4926C122.93 20.0617 122.771 20.4491 122.588 20.6549C122.417 20.8487 122.142 20.9455 121.764 20.9455ZM136.964 16.8048C137.123 16.8048 137.245 16.8774 137.331 17.0227C137.428 17.168 137.477 17.3678 137.477 17.622C137.477 18.1063 137.361 18.4817 137.129 18.748C136.677 19.2929 136.037 19.7953 135.206 20.2554C134.388 20.7155 133.509 20.9455 132.569 20.9455C131.288 20.9455 130.293 20.6005 129.584 19.9103C128.876 19.2202 128.522 18.2758 128.522 17.0772C128.522 16.2418 128.699 15.4669 129.053 14.7526C129.407 14.0261 129.896 13.451 130.518 13.0272C131.153 12.6035 131.867 12.3916 132.661 12.3916C133.369 12.3916 133.937 12.6035 134.364 13.0272C134.791 13.4389 135.005 14.0019 135.005 14.7162C135.005 15.5516 134.7 16.272 134.089 16.8774C133.491 17.4707 132.472 17.9429 131.031 18.294C131.336 18.8509 131.916 19.1294 132.771 19.1294C133.32 19.1294 133.943 18.9417 134.639 18.5664C135.347 18.179 135.957 17.6765 136.47 17.059C136.616 16.8895 136.781 16.8048 136.964 16.8048ZM132.35 14.1714C131.898 14.1714 131.513 14.4317 131.196 14.9523C130.891 15.4729 130.738 16.1025 130.738 16.8411V16.8774C131.458 16.7079 132.026 16.4537 132.441 16.1146C132.856 15.7756 133.064 15.3821 133.064 14.9342C133.064 14.7041 132.997 14.5225 132.862 14.3893C132.74 14.244 132.569 14.1714 132.35 14.1714ZM144.153 16.8048C144.312 16.8048 144.434 16.8774 144.52 17.0227C144.617 17.168 144.666 17.3678 144.666 17.622C144.666 18.1063 144.55 18.4817 144.318 18.748C143.867 19.2929 143.226 19.7953 142.395 20.2554C141.577 20.7155 140.699 20.9455 139.758 20.9455C138.477 20.9455 137.482 20.6005 136.774 19.9103C136.065 19.2202 135.711 18.2758 135.711 17.0772C135.711 16.2418 135.888 15.4669 136.243 14.7526C136.597 14.0261 137.085 13.451 137.707 13.0272C138.342 12.6035 139.057 12.3916 139.85 12.3916C140.558 12.3916 141.126 12.6035 141.553 13.0272C141.98 13.4389 142.194 14.0019 142.194 14.7162C142.194 15.5516 141.889 16.272 141.278 16.8774C140.68 17.4707 139.661 17.9429 138.22 18.294C138.525 18.8509 139.105 19.1294 139.96 19.1294C140.509 19.1294 141.132 18.9417 141.828 18.5664C142.536 18.179 143.146 17.6765 143.659 17.059C143.805 16.8895 143.97 16.8048 144.153 16.8048ZM139.539 14.1714C139.087 14.1714 138.702 14.4317 138.385 14.9523C138.08 15.4729 137.927 16.1025 137.927 16.8411V16.8774C138.648 16.7079 139.215 16.4537 139.63 16.1146C140.045 15.7756 140.253 15.3821 140.253 14.9342C140.253 14.7041 140.186 14.5225 140.051 14.3893C139.929 14.244 139.758 14.1714 139.539 14.1714ZM146.197 14.1169C146.172 14.7223 146.16 15.1945 146.16 15.5335C146.16 16.4052 146.203 17.0893 146.288 17.5857C146.386 18.07 146.538 18.4211 146.746 18.639C146.966 18.8449 147.265 18.9478 147.643 18.9478C147.839 18.9478 148.071 18.8872 148.339 18.7662C148.608 18.6451 148.852 18.4877 149.072 18.294C149.206 18.1729 149.34 18.1124 149.475 18.1124C149.621 18.1124 149.737 18.1971 149.822 18.3666C149.92 18.524 149.969 18.7177 149.969 18.9478C149.969 19.1778 149.92 19.4018 149.822 19.6197C149.737 19.8377 149.603 20.0193 149.42 20.1646C148.785 20.6852 148.064 20.9455 147.259 20.9455C146.099 20.9455 145.25 20.4673 144.713 19.5108C144.176 18.5422 143.908 17.283 143.908 15.7333C143.908 15.2005 143.926 14.6617 143.963 14.1169H143.248C142.882 14.1169 142.632 14.0503 142.498 13.9171C142.375 13.784 142.314 13.5721 142.314 13.2815C142.314 12.6035 142.589 12.2645 143.138 12.2645H144.182C144.39 10.9327 144.707 9.71585 145.134 8.61407C145.562 7.5123 146.075 6.63451 146.673 5.98071C147.283 5.32691 147.936 5 148.632 5C149.145 5 149.548 5.22399 149.841 5.67196C150.134 6.11994 150.28 6.68294 150.28 7.36095C150.28 9.23761 149.487 10.8721 147.9 12.2645H149.951C150.146 12.2645 150.286 12.3069 150.372 12.3916C150.457 12.4764 150.5 12.6338 150.5 12.8638C150.5 13.6992 149.81 14.1169 148.431 14.1169H146.197ZM148.138 6.74347C147.955 6.74347 147.747 6.97352 147.515 7.4336C147.295 7.88158 147.082 8.51116 146.874 9.32236C146.679 10.1215 146.514 11.0114 146.38 11.9921C147.1 11.3746 147.637 10.6845 147.991 9.92168C148.357 9.14681 148.541 8.44457 148.541 7.81498C148.541 7.10064 148.406 6.74347 148.138 6.74347Z" fill="#2F2105"/>
</g>
<defs>
<clipPath id="clip0_303_114">
<rect width="150" height="30" fill="white" transform="translate(0.5)"/>
</clipPath>
</defs>
</svg>
