<svg width="25" height="24" viewBox="0 0 25 24" fill="none" xmlns="http://www.w3.org/2000/svg">
<path d="M11.427 2.633C11.747 1.789 12.958 1.789 13.279 2.633L15.349 8.367C15.4212 8.55379 15.5484 8.71428 15.7137 8.82729C15.879 8.94031 16.0747 9.00053 16.275 9H21.362C22.302 9 22.712 10.17 21.973 10.743L18.353 14C18.1908 14.1247 18.0723 14.2975 18.0145 14.4937C17.9566 14.6898 17.9624 14.8993 18.031 15.092L19.353 20.695C19.675 21.595 18.633 22.368 17.845 21.814L12.928 18.694C12.7596 18.5757 12.5588 18.5122 12.353 18.5122C12.1472 18.5122 11.9464 18.5757 11.778 18.694L6.86098 21.814C6.07398 22.368 5.03098 21.594 5.35298 20.695L6.67498 15.092C6.74356 14.8993 6.74934 14.6898 6.69149 14.4937C6.63364 14.2975 6.51514 14.1247 6.35298 14L2.73298 10.743C1.99298 10.17 2.40498 9 3.34298 9H8.42998C8.63027 9.00067 8.82605 8.9405 8.9914 8.82747C9.15675 8.71444 9.28389 8.55387 9.35598 8.367L11.426 2.633H11.427Z" fill="#FFD057" stroke="#FFD057" stroke-linecap="round" stroke-linejoin="round"/>
</svg>
